:FULLY-SPECIFIED
:FORCE-ALL-JOINTS-BE-3DOF
:DEGREES
71
root 0.562285 17.4011 1.43958 1.1714 0.830892 0.960543
lfemur -18.8137 1.30904 -21.9142
ltibia 60.9415 -0 0
lfoot -6.37196 -1.78484 -0.225644
ltoes -13.9992 0 0
rfemur -13.9302 -7.50806 20.4049
rtibia 87.6085 -0 0
rfoot 12.2577 -6.51984 -0.0120998
rtoes 15.6152 -0 0
lowerback 18.109 -0.790708 -2.64874
upperback 2.79183 -1.63646 -1.3005
thorax -7.0455 -0.748232 0.488639
lowerneck -5.15155 0.139859 -1.28683
upperneck -11.1462 0.392374 2.24479
head -2.51859 0.194708 0.882566
lclavicle 3.77691e-15 4.21423e-14 0
lhumerus -31.5325 -14.4545 88.8007
lradius 106.037 -0 0
lwrist 30.7025 0 0
lhand -37.1119 9.4591 -0.0416243
lfingers 7.12502 -0 0
lthumb -10.1823 39.1866 -0.0390573
rclavicle 3.77691e-15 4.21423e-14 0
rhumerus -42.9654 8.02113 -86.2069
rradius 85.7324 -0 0
rwrist 0.016518 0 0
rhand -44.6279 38.1263 -0
rfingers 7.12502 -0 0
rthumb -17.4214 8.88027 -6.29039e-07
72
root 0.562959 17.4049 1.9789 1.08341 1.19614 1.16407
lfemur -18.5086 0.859841 -22.3959
ltibia 59.1226 -0 0
lfoot -7.13534 -1.6875 -0.213915
ltoes -14.1738 0 0
rfemur -13.8638 -7.88689 19.9849
rtibia 89.204 -0 0
rfoot 13.2477 -6.52386 -0.0114688
rtoes 16.458 -0 0
lowerback 18.0971 -0.791497 -2.8813
upperback 2.81166 -1.69081 -1.4227
thorax -7.01615 -0.770009 0.502116
lowerneck -5.28373 0.0398916 -1.35974
upperneck -10.9596 0.275756 2.45629
head -2.44408 0.135652 0.964655
lclavicle 3.77691e-15 4.21423e-14 0
lhumerus -30.947 -14.5367 88.5165
lradius 106.109 -0 0
lwrist 30.5843 0 0
lhand -37.0263 9.29898 -0.0394707
lfingers 7.12502 -0 0
lthumb -10.0998 39.0308 -0.0370366
rclavicle 3.77691e-15 4.21423e-14 0
rhumerus -43.393 7.86619 -86.119
rradius 85.1906 -0 0
rwrist 0.114745 0 0
rhand -44.6279 38.1263 -0
rfingers 7.12502 -0 0
rthumb -17.4217 8.88086 -5.96503e-07
73
root 0.563634 17.4087 2.51823 0.996703 1.5617 1.36706
lfemur -18.1997 0.413227 -22.8799
ltibia 57.3036 -0 0
lfoot -7.8987 -1.59032 -0.20089
ltoes -14.3483 0 0
rfemur -13.7946 -8.26523 19.5642
rtibia 90.7994 -0 0
rfoot 14.2376 -6.52788 -0.0107683
rtoes 17.3008 -0 0
lowerback 18.0852 -0.792334 -3.11387
upperback 2.8316 -1.74513 -1.54492
thorax -6.98681 -0.791793 0.515582
lowerneck -5.41577 -0.0602439 -1.43243
upperneck -10.7735 0.15845 2.6674
head -2.36965 0.0764894 1.04667
lclavicle 3.77691e-15 4.21423e-14 0
lhumerus -30.3609 -14.6162 88.2313
lradius 106.182 -0 0
lwrist 30.4662 0 0
lhand -36.9407 9.13888 -0.0370779
lfingers 7.12502 -0 0
lthumb -10.0172 38.8751 -0.0347914
rclavicle 3.77691e-15 4.21423e-14 0
rhumerus -43.8208 7.71191 -86.0299
rradius 84.6489 -0 0
rwrist 0.212972 0 0
rhand -44.6279 38.1263 -0
rfingers 7.12502 -0 0
rthumb -17.4221 8.88145 -5.60351e-07
74
root 0.564308 17.4125 3.05756 0.911275 1.92757 1.56954
lfemur -17.887 -0.0307546 -23.3664
ltibia 55.4847 -0 0
lfoot -8.66203 -1.49333 -0.186571
ltoes -14.5228 0 0
rfemur -13.7224 -8.64305 19.1425
rtibia 92.3949 -0 0
rfoot 15.2276 -6.53188 -0.00999857
rtoes 18.1437 -0 0
lowerback 18.0732 -0.79322 -3.34643
upperback 2.85166 -1.7994 -1.66717
thorax -6.95747 -0.813584 0.529037
lowerneck -5.5477 -0.160547 -1.50488
upperneck -10.5878 0.0404603 2.87813
head -2.29531 0.0172203 1.1286
lclavicle 3.77691e-15 4.21423e-14 0
lhumerus -29.7742 -14.6928 87.9452
lradius 106.255 -0 0
lwrist 30.3481 0 0
lhand -36.8551 8.97877 -0.0344459
lfingers 7.12502 -0 0
lthumb -9.93466 38.7193 -0.0323218
rclavicle 3.77691e-15 4.21423e-14 0
rhumerus -44.2486 7.5583 -85.9397
rradius 84.1071 -0 0
rwrist 0.311198 0 0
rhand -44.6279 38.1263 -0
rfingers 7.12502 -0 0
rthumb -17.4224 8.88204 -5.20584e-07
75
root 0.564982 17.4163 3.59689 0.827123 2.29374 1.77152
lfemur -17.5706 -0.472059 -23.8552
ltibia 53.6658 -0 0
lfoot -9.42533 -1.39654 -0.170961
ltoes -14.6974 0 0
rfemur -13.6474 -9.02034 18.72
rtibia 93.9903 -0 0
rfoot 16.2176 -6.53587 -0.00915984
rtoes 18.9865 -0 0
lowerback 18.0613 -0.794155 -3.57899
upperback 2.87183 -1.85363 -1.78943
thorax -6.92813 -0.835382 0.54248
lowerneck -5.67949 -0.261016 -1.5771
upperneck -10.4025 -0.0782113 3.08847
head -2.22105 -0.0421549 1.21046
lclavicle 3.77691e-15 4.21423e-14 0
lhumerus -29.1869 -14.7665 87.6582
lradius 106.327 -0 0
lwrist 30.23 0 0
lhand -36.7695 8.81867 -0.0315748
lfingers 7.12502 -0 0
lthumb -9.85211 38.5636 -0.0296277
rclavicle 3.77691e-15 4.21423e-14 0
rhumerus -44.6765 7.40535 -85.8484
rradius 83.5654 -0 0
rwrist 0.409425 0 0
rhand -44.6279 38.1263 -0
rfingers 7.12502 -0 0
rthumb -17.4228 8.88263 -4.77202e-07
76
root 0.565656 17.4201 4.13621 0.744239 2.66019 1.97301
lfemur -17.2504 -0.910642 -24.3465
ltibia 51.8469 -0 0
lfoot -10.1886 -1.29996 -0.154064
ltoes -14.8719 0 0
rfemur -13.5695 -9.39707 18.2965
rtibia 95.5858 -0 0
rfoot 17.2075 -6.53984 -0.00825236
rtoes 19.8293 -0 0
lowerback 18.0494 -0.795138 -3.81155
upperback 2.89212 -1.90782 -1.91172
thorax -6.8988 -0.857186 0.555913
lowerneck -5.81117 -0.361651 -1.64909
upperneck -10.2176 -0.197561 3.29844
head -2.14687 -0.101636 1.29224
lclavicle 3.77691e-15 4.21423e-14 0
lhumerus -28.599 -14.8375 87.3704
lradius 106.4 -0 0
lwrist 30.1119 0 0
lhand -36.6839 8.65858 -0.0284645
lfingers 7.12502 -0 0
lthumb -9.76956 38.4078 -0.0267093
rclavicle 3.77691e-15 4.21423e-14 0
rhumerus -45.1045 7.25309 -85.7559
rradius 83.0236 -0 0
rwrist 0.507652 0 0
rhand -44.6279 38.1263 -0
rfingers 7.12502 -0 0
rthumb -17.4231 8.88322 -4.30205e-07
77
root 0.56633 17.4239 4.67554 0.662621 3.02694 2.17404
lfemur -16.9264 -1.34646 -24.8404
ltibia 50.028 -0 0
lfoot -10.9519 -1.20361 -0.135881
ltoes -15.0465 0 0
rfemur -13.4887 -9.77322 17.872
rtibia 97.1812 -0 0
rfoot 18.1975 -6.54379 -0.00727639
rtoes 20.6721 -0 0
lowerback 18.0374 -0.796169 -4.04411
upperback 2.91253 -1.96196 -2.03404
thorax -6.86948 -0.878998 0.569334
lowerneck -5.94271 -0.462451 -1.72085
upperneck -10.0332 -0.317588 3.50801
head -2.07278 -0.161223 1.37395
lclavicle 3.77691e-15 4.21423e-14 0
lhumerus -28.0106 -14.9055 87.0817
lradius 106.472 -0 0
lwrist 29.9937 0 0
lhand -36.5984 8.49848 -0.0251152
lfingers 7.12502 -0 0
lthumb -9.68703 38.2521 -0.0235665
rclavicle 3.77691e-15 4.21423e-14 0
rhumerus -45.5326 7.10151 -85.6624
rradius 82.4819 -0 0
rwrist 0.605879 0 0
rhand -44.6279 38.1263 -0
rfingers 7.12502 -0 0
rthumb -17.4235 8.88381 -3.79593e-07
